<mxfile host="65bd71144e">
    <diagram id="eUWw2wQMSJ6qKqq2mwdD" name="overall">
        <mxGraphModel dx="806" dy="911" grid="0" gridSize="10" guides="1" tooltips="1" connect="1" arrows="1" fold="1" page="0" pageScale="1" pageWidth="827" pageHeight="1169" math="0" shadow="0">
            <root>
                <mxCell id="0"/>
                <mxCell id="1" parent="0"/>
                <mxCell id="2" value="" style="rounded=0;whiteSpace=wrap;html=1;" parent="1" vertex="1">
                    <mxGeometry x="30" y="10" width="780" height="240" as="geometry"/>
                </mxCell>
                <mxCell id="3" value="Development Flow" style="text;html=1;strokeColor=none;fillColor=none;align=center;verticalAlign=middle;whiteSpace=wrap;rounded=0;" parent="1" vertex="1">
                    <mxGeometry x="690" y="-20" width="137" height="30" as="geometry"/>
                </mxCell>
                <mxCell id="19" style="edgeStyle=none;html=1;exitX=1;exitY=0.5;exitDx=0;exitDy=0;entryX=0;entryY=0.5;entryDx=0;entryDy=0;" parent="1" source="4" target="5" edge="1">
                    <mxGeometry relative="1" as="geometry"/>
                </mxCell>
                <mxCell id="4" value="H2 DATABASE" style="rounded=0;whiteSpace=wrap;html=1;" parent="1" vertex="1">
                    <mxGeometry x="60" y="100" width="120" height="60" as="geometry"/>
                </mxCell>
                <mxCell id="16" style="edgeStyle=none;html=1;exitX=1;exitY=0.25;exitDx=0;exitDy=0;entryX=0;entryY=0.5;entryDx=0;entryDy=0;" parent="1" source="5" target="9" edge="1">
                    <mxGeometry relative="1" as="geometry"/>
                </mxCell>
                <mxCell id="17" style="edgeStyle=none;html=1;exitX=1;exitY=0.75;exitDx=0;exitDy=0;entryX=0;entryY=0.5;entryDx=0;entryDy=0;" parent="1" source="5" target="6" edge="1">
                    <mxGeometry relative="1" as="geometry"/>
                </mxCell>
                <mxCell id="5" value="JAVA/SPRING APP" style="rounded=0;whiteSpace=wrap;html=1;" parent="1" vertex="1">
                    <mxGeometry x="200" y="100" width="120" height="60" as="geometry"/>
                </mxCell>
                <mxCell id="21" style="edgeStyle=none;html=1;exitX=1;exitY=0.5;exitDx=0;exitDy=0;entryX=0;entryY=0.5;entryDx=0;entryDy=0;" parent="1" source="6" target="20" edge="1">
                    <mxGeometry relative="1" as="geometry"/>
                </mxCell>
                <mxCell id="6" value="BUILD DOCKER IMAGE" style="rounded=0;whiteSpace=wrap;html=1;" parent="1" vertex="1">
                    <mxGeometry x="360" y="152" width="120" height="60" as="geometry"/>
                </mxCell>
                <mxCell id="11" style="edgeStyle=none;html=1;exitX=1;exitY=0.5;exitDx=0;exitDy=0;entryX=0;entryY=0.5;entryDx=0;entryDy=0;" parent="1" source="9" target="10" edge="1">
                    <mxGeometry relative="1" as="geometry"/>
                </mxCell>
                <mxCell id="9" value="EVERY MASTER PULL REQUEST OR COMMIT IS DEPLOYED" style="rounded=0;whiteSpace=wrap;html=1;" parent="1" vertex="1">
                    <mxGeometry x="350" y="40" width="120" height="60" as="geometry"/>
                </mxCell>
                <mxCell id="10" value="HEROKU" style="rounded=0;whiteSpace=wrap;html=1;" parent="1" vertex="1">
                    <mxGeometry x="510" y="40" width="120" height="60" as="geometry"/>
                </mxCell>
                <mxCell id="20" value="DEPLOY DOCKER IMAGE TO DOCKER HUB" style="rounded=0;whiteSpace=wrap;html=1;" parent="1" vertex="1">
                    <mxGeometry x="510" y="152" width="120" height="60" as="geometry"/>
                </mxCell>
            </root>
        </mxGraphModel>
    </diagram>
    <diagram id="1DCl6n03F0GVBMrx0RVn" name="user-security">
        <mxGraphModel dx="1606" dy="911" grid="0" gridSize="10" guides="1" tooltips="1" connect="1" arrows="1" fold="1" page="0" pageScale="1" pageWidth="827" pageHeight="1169" math="0" shadow="0">
            <root>
                <mxCell id="Qm5G5zfss7X4Bs_YWf3B-0"/>
                <mxCell id="Qm5G5zfss7X4Bs_YWf3B-1" parent="Qm5G5zfss7X4Bs_YWf3B-0"/>
                <mxCell id="Qm5G5zfss7X4Bs_YWf3B-29" value="" style="rounded=0;whiteSpace=wrap;html=1;" parent="Qm5G5zfss7X4Bs_YWf3B-1" vertex="1">
                    <mxGeometry x="-440" y="301" width="761" height="207" as="geometry"/>
                </mxCell>
                <mxCell id="Qm5G5zfss7X4Bs_YWf3B-11" value="" style="rounded=0;whiteSpace=wrap;html=1;" parent="Qm5G5zfss7X4Bs_YWf3B-1" vertex="1">
                    <mxGeometry x="-105" y="341" width="398" height="142" as="geometry"/>
                </mxCell>
                <mxCell id="Qm5G5zfss7X4Bs_YWf3B-23" value="" style="rounded=0;whiteSpace=wrap;html=1;" parent="Qm5G5zfss7X4Bs_YWf3B-1" vertex="1">
                    <mxGeometry x="-69" y="363" width="169" height="92" as="geometry"/>
                </mxCell>
                <mxCell id="Qm5G5zfss7X4Bs_YWf3B-8" value="" style="rounded=0;whiteSpace=wrap;html=1;" parent="Qm5G5zfss7X4Bs_YWf3B-1" vertex="1">
                    <mxGeometry x="-208" y="-4" width="422" height="84" as="geometry"/>
                </mxCell>
                <mxCell id="Qm5G5zfss7X4Bs_YWf3B-6" style="edgeStyle=none;html=1;exitX=1;exitY=0.5;exitDx=0;exitDy=0;entryX=0;entryY=0.5;entryDx=0;entryDy=0;" parent="Qm5G5zfss7X4Bs_YWf3B-1" source="Qm5G5zfss7X4Bs_YWf3B-2" target="Qm5G5zfss7X4Bs_YWf3B-4" edge="1">
                    <mxGeometry relative="1" as="geometry"/>
                </mxCell>
                <mxCell id="Qm5G5zfss7X4Bs_YWf3B-2" value="UserController" style="rounded=0;whiteSpace=wrap;html=1;" parent="Qm5G5zfss7X4Bs_YWf3B-1" vertex="1">
                    <mxGeometry x="-192" y="10" width="106" height="52" as="geometry"/>
                </mxCell>
                <mxCell id="Qm5G5zfss7X4Bs_YWf3B-3" value="Security Layer" style="text;html=1;strokeColor=none;fillColor=none;align=center;verticalAlign=middle;whiteSpace=wrap;rounded=0;" parent="Qm5G5zfss7X4Bs_YWf3B-1" vertex="1">
                    <mxGeometry x="120" y="-31" width="109" height="30" as="geometry"/>
                </mxCell>
                <mxCell id="Qm5G5zfss7X4Bs_YWf3B-7" style="edgeStyle=none;html=1;exitX=1;exitY=0.5;exitDx=0;exitDy=0;entryX=0;entryY=0.5;entryDx=0;entryDy=0;" parent="Qm5G5zfss7X4Bs_YWf3B-1" source="Qm5G5zfss7X4Bs_YWf3B-4" target="Qm5G5zfss7X4Bs_YWf3B-5" edge="1">
                    <mxGeometry relative="1" as="geometry"/>
                </mxCell>
                <mxCell id="Qm5G5zfss7X4Bs_YWf3B-4" value="UserService" style="rounded=0;whiteSpace=wrap;html=1;" parent="Qm5G5zfss7X4Bs_YWf3B-1" vertex="1">
                    <mxGeometry x="-51" y="10" width="106" height="52" as="geometry"/>
                </mxCell>
                <mxCell id="Qm5G5zfss7X4Bs_YWf3B-5" value="UserRepository" style="rounded=0;whiteSpace=wrap;html=1;" parent="Qm5G5zfss7X4Bs_YWf3B-1" vertex="1">
                    <mxGeometry x="90" y="10" width="106" height="52" as="geometry"/>
                </mxCell>
                <mxCell id="Qm5G5zfss7X4Bs_YWf3B-10" style="edgeStyle=none;html=1;exitX=1;exitY=0.5;exitDx=0;exitDy=0;" parent="Qm5G5zfss7X4Bs_YWf3B-1" source="Qm5G5zfss7X4Bs_YWf3B-9" target="Qm5G5zfss7X4Bs_YWf3B-8" edge="1">
                    <mxGeometry relative="1" as="geometry"/>
                </mxCell>
                <mxCell id="Qm5G5zfss7X4Bs_YWf3B-9" value="Client" style="rounded=0;whiteSpace=wrap;html=1;" parent="Qm5G5zfss7X4Bs_YWf3B-1" vertex="1">
                    <mxGeometry x="-389" y="10" width="106" height="52" as="geometry"/>
                </mxCell>
                <mxCell id="Qm5G5zfss7X4Bs_YWf3B-20" value="Register" style="rounded=0;whiteSpace=wrap;html=1;" parent="Qm5G5zfss7X4Bs_YWf3B-1" vertex="1">
                    <mxGeometry x="-418" y="363" width="106" height="52" as="geometry"/>
                </mxCell>
                <mxCell id="Qm5G5zfss7X4Bs_YWf3B-21" value="Auth" style="rounded=0;whiteSpace=wrap;html=1;" parent="Qm5G5zfss7X4Bs_YWf3B-1" vertex="1">
                    <mxGeometry x="-290" y="363" width="106" height="52" as="geometry"/>
                </mxCell>
                <mxCell id="Qm5G5zfss7X4Bs_YWf3B-22" value="CreateVehicle" style="rounded=0;whiteSpace=wrap;html=1;" parent="Qm5G5zfss7X4Bs_YWf3B-1" vertex="1">
                    <mxGeometry x="-37.5" y="383" width="106" height="52" as="geometry"/>
                </mxCell>
                <mxCell id="Qm5G5zfss7X4Bs_YWf3B-24" value="Only Admin" style="text;html=1;strokeColor=none;fillColor=none;align=center;verticalAlign=middle;whiteSpace=wrap;rounded=0;" parent="Qm5G5zfss7X4Bs_YWf3B-1" vertex="1">
                    <mxGeometry x="26" y="341" width="88" height="30" as="geometry"/>
                </mxCell>
                <mxCell id="Qm5G5zfss7X4Bs_YWf3B-25" value="VehicleCrud" style="rounded=0;whiteSpace=wrap;html=1;" parent="Qm5G5zfss7X4Bs_YWf3B-1" vertex="1">
                    <mxGeometry x="140" y="363" width="106" height="52" as="geometry"/>
                </mxCell>
                <mxCell id="Qm5G5zfss7X4Bs_YWf3B-38" style="edgeStyle=none;html=1;exitX=1;exitY=0.5;exitDx=0;exitDy=0;entryX=0.75;entryY=0;entryDx=0;entryDy=0;" parent="Qm5G5zfss7X4Bs_YWf3B-1" source="Qm5G5zfss7X4Bs_YWf3B-26" target="Qm5G5zfss7X4Bs_YWf3B-24" edge="1">
                    <mxGeometry relative="1" as="geometry"/>
                </mxCell>
                <mxCell id="Qm5G5zfss7X4Bs_YWf3B-26" value="Client" style="rounded=0;whiteSpace=wrap;html=1;" parent="Qm5G5zfss7X4Bs_YWf3B-1" vertex="1">
                    <mxGeometry x="-133" y="207" width="106" height="52" as="geometry"/>
                </mxCell>
                <mxCell id="Qm5G5zfss7X4Bs_YWf3B-27" value="Security" style="text;html=1;strokeColor=none;fillColor=none;align=center;verticalAlign=middle;whiteSpace=wrap;rounded=0;" parent="Qm5G5zfss7X4Bs_YWf3B-1" vertex="1">
                    <mxGeometry x="215" y="316" width="88" height="30" as="geometry"/>
                </mxCell>
                <mxCell id="Qm5G5zfss7X4Bs_YWf3B-30" value="API" style="text;html=1;strokeColor=none;fillColor=none;align=center;verticalAlign=middle;whiteSpace=wrap;rounded=0;" parent="Qm5G5zfss7X4Bs_YWf3B-1" vertex="1">
                    <mxGeometry x="255" y="276" width="88" height="30" as="geometry"/>
                </mxCell>
                <mxCell id="Qm5G5zfss7X4Bs_YWf3B-33" value="" style="endArrow=classic;startArrow=classic;html=1;entryX=0;entryY=0.75;entryDx=0;entryDy=0;" parent="Qm5G5zfss7X4Bs_YWf3B-1" target="Qm5G5zfss7X4Bs_YWf3B-26" edge="1">
                    <mxGeometry width="50" height="50" relative="1" as="geometry">
                        <mxPoint x="-343" y="366" as="sourcePoint"/>
                        <mxPoint x="-293" y="316" as="targetPoint"/>
                    </mxGeometry>
                </mxCell>
                <mxCell id="Qm5G5zfss7X4Bs_YWf3B-34" value="" style="endArrow=classic;startArrow=classic;html=1;entryX=0;entryY=0.75;entryDx=0;entryDy=0;exitX=0.25;exitY=0;exitDx=0;exitDy=0;" parent="Qm5G5zfss7X4Bs_YWf3B-1" source="Qm5G5zfss7X4Bs_YWf3B-21" edge="1">
                    <mxGeometry width="50" height="50" relative="1" as="geometry">
                        <mxPoint x="-304" y="379" as="sourcePoint"/>
                        <mxPoint x="-94" y="259" as="targetPoint"/>
                    </mxGeometry>
                </mxCell>
                <mxCell id="Qm5G5zfss7X4Bs_YWf3B-35" value="JWT" style="text;html=1;strokeColor=none;fillColor=none;align=center;verticalAlign=middle;whiteSpace=wrap;rounded=0;" parent="Qm5G5zfss7X4Bs_YWf3B-1" vertex="1">
                    <mxGeometry x="-243" y="324" width="88" height="30" as="geometry"/>
                </mxCell>
                <mxCell id="Qm5G5zfss7X4Bs_YWf3B-39" value="JWT" style="text;html=1;strokeColor=none;fillColor=none;align=center;verticalAlign=middle;whiteSpace=wrap;rounded=0;" parent="Qm5G5zfss7X4Bs_YWf3B-1" vertex="1">
                    <mxGeometry x="-7" y="257" width="88" height="30" as="geometry"/>
                </mxCell>
            </root>
        </mxGraphModel>
    </diagram>
    <diagram id="nr46bHTYpEx0ZMgBDc1Z" name="security-details">
        <mxGraphModel dx="1662" dy="498" grid="0" gridSize="10" guides="1" tooltips="1" connect="1" arrows="1" fold="1" page="0" pageScale="1" pageWidth="827" pageHeight="1169" math="0" shadow="0">
            <root>
                <mxCell id="KCpW3uizZsphwxs8JLEF-0"/>
                <mxCell id="KCpW3uizZsphwxs8JLEF-1" parent="KCpW3uizZsphwxs8JLEF-0"/>
                <mxCell id="KCpW3uizZsphwxs8JLEF-7" value="" style="rounded=0;whiteSpace=wrap;html=1;" vertex="1" parent="KCpW3uizZsphwxs8JLEF-1">
                    <mxGeometry x="-320" y="452" width="530" height="186" as="geometry"/>
                </mxCell>
                <mxCell id="KCpW3uizZsphwxs8JLEF-24" style="edgeStyle=none;html=1;exitX=0.5;exitY=1;exitDx=0;exitDy=0;entryX=0.145;entryY=0;entryDx=0;entryDy=4.35;entryPerimeter=0;" edge="1" parent="KCpW3uizZsphwxs8JLEF-1" source="KCpW3uizZsphwxs8JLEF-17" target="KCpW3uizZsphwxs8JLEF-22">
                    <mxGeometry relative="1" as="geometry"/>
                </mxCell>
                <mxCell id="KCpW3uizZsphwxs8JLEF-17" value="" style="rounded=0;whiteSpace=wrap;html=1;" vertex="1" parent="KCpW3uizZsphwxs8JLEF-1">
                    <mxGeometry x="-275" y="492" width="182" height="106" as="geometry"/>
                </mxCell>
                <mxCell id="KCpW3uizZsphwxs8JLEF-2" value="" style="rounded=0;whiteSpace=wrap;html=1;" vertex="1" parent="KCpW3uizZsphwxs8JLEF-1">
                    <mxGeometry x="-316" y="219" width="530" height="167" as="geometry"/>
                </mxCell>
                <mxCell id="KCpW3uizZsphwxs8JLEF-3" value="UserController" style="text;html=1;strokeColor=none;fillColor=none;align=center;verticalAlign=middle;whiteSpace=wrap;rounded=0;" vertex="1" parent="KCpW3uizZsphwxs8JLEF-1">
                    <mxGeometry x="150" y="194" width="60" height="30" as="geometry"/>
                </mxCell>
                <mxCell id="KCpW3uizZsphwxs8JLEF-34" style="edgeStyle=none;html=1;exitX=0.75;exitY=0;exitDx=0;exitDy=0;entryX=1;entryY=1;entryDx=0;entryDy=0;" edge="1" parent="KCpW3uizZsphwxs8JLEF-1" source="KCpW3uizZsphwxs8JLEF-5" target="KCpW3uizZsphwxs8JLEF-11">
                    <mxGeometry relative="1" as="geometry"/>
                </mxCell>
                <mxCell id="KCpW3uizZsphwxs8JLEF-5" value="Auth" style="rounded=1;whiteSpace=wrap;html=1;" vertex="1" parent="KCpW3uizZsphwxs8JLEF-1">
                    <mxGeometry x="30" y="272.5" width="120" height="60" as="geometry"/>
                </mxCell>
                <mxCell id="KCpW3uizZsphwxs8JLEF-6" value="Register" style="rounded=1;whiteSpace=wrap;html=1;" vertex="1" parent="KCpW3uizZsphwxs8JLEF-1">
                    <mxGeometry x="-244" y="272.5" width="120" height="60" as="geometry"/>
                </mxCell>
                <mxCell id="KCpW3uizZsphwxs8JLEF-8" value="UserModelService" style="text;html=1;strokeColor=none;fillColor=none;align=center;verticalAlign=middle;whiteSpace=wrap;rounded=0;" vertex="1" parent="KCpW3uizZsphwxs8JLEF-1">
                    <mxGeometry x="143" y="427" width="60" height="30" as="geometry"/>
                </mxCell>
                <mxCell id="KCpW3uizZsphwxs8JLEF-33" style="edgeStyle=none;html=1;exitX=0.75;exitY=0;exitDx=0;exitDy=0;entryX=0.75;entryY=1;entryDx=0;entryDy=0;" edge="1" parent="KCpW3uizZsphwxs8JLEF-1" source="KCpW3uizZsphwxs8JLEF-9" target="KCpW3uizZsphwxs8JLEF-5">
                    <mxGeometry relative="1" as="geometry"/>
                </mxCell>
                <mxCell id="KCpW3uizZsphwxs8JLEF-9" value="Auth" style="rounded=1;whiteSpace=wrap;html=1;" vertex="1" parent="KCpW3uizZsphwxs8JLEF-1">
                    <mxGeometry x="30" y="515" width="120" height="60" as="geometry"/>
                </mxCell>
                <mxCell id="KCpW3uizZsphwxs8JLEF-10" value="Register" style="rounded=1;whiteSpace=wrap;html=1;" vertex="1" parent="KCpW3uizZsphwxs8JLEF-1">
                    <mxGeometry x="-244" y="515" width="120" height="60" as="geometry"/>
                </mxCell>
                <mxCell id="KCpW3uizZsphwxs8JLEF-12" style="edgeStyle=none;html=1;exitX=0.25;exitY=1;exitDx=0;exitDy=0;entryX=0.5;entryY=0;entryDx=0;entryDy=0;" edge="1" parent="KCpW3uizZsphwxs8JLEF-1" source="KCpW3uizZsphwxs8JLEF-11" target="KCpW3uizZsphwxs8JLEF-6">
                    <mxGeometry relative="1" as="geometry"/>
                </mxCell>
                <mxCell id="KCpW3uizZsphwxs8JLEF-13" style="edgeStyle=none;html=1;exitX=0.75;exitY=1;exitDx=0;exitDy=0;entryX=0.5;entryY=0;entryDx=0;entryDy=0;" edge="1" parent="KCpW3uizZsphwxs8JLEF-1" source="KCpW3uizZsphwxs8JLEF-11" target="KCpW3uizZsphwxs8JLEF-5">
                    <mxGeometry relative="1" as="geometry"/>
                </mxCell>
                <mxCell id="KCpW3uizZsphwxs8JLEF-11" value="Client" style="rounded=0;whiteSpace=wrap;html=1;" vertex="1" parent="KCpW3uizZsphwxs8JLEF-1">
                    <mxGeometry x="-111" y="107" width="120" height="60" as="geometry"/>
                </mxCell>
                <mxCell id="KCpW3uizZsphwxs8JLEF-15" style="edgeStyle=none;html=1;exitX=0.5;exitY=1;exitDx=0;exitDy=0;entryX=0.5;entryY=0;entryDx=0;entryDy=0;" edge="1" parent="KCpW3uizZsphwxs8JLEF-1" source="KCpW3uizZsphwxs8JLEF-6" target="KCpW3uizZsphwxs8JLEF-10">
                    <mxGeometry relative="1" as="geometry"/>
                </mxCell>
                <mxCell id="KCpW3uizZsphwxs8JLEF-16" style="edgeStyle=none;html=1;exitX=0.5;exitY=1;exitDx=0;exitDy=0;" edge="1" parent="KCpW3uizZsphwxs8JLEF-1" source="KCpW3uizZsphwxs8JLEF-5" target="KCpW3uizZsphwxs8JLEF-9">
                    <mxGeometry relative="1" as="geometry"/>
                </mxCell>
                <mxCell id="KCpW3uizZsphwxs8JLEF-19" value="Encryption" style="text;html=1;strokeColor=none;fillColor=none;align=center;verticalAlign=middle;whiteSpace=wrap;rounded=0;" vertex="1" parent="KCpW3uizZsphwxs8JLEF-1">
                    <mxGeometry x="-154" y="468" width="64" height="30" as="geometry"/>
                </mxCell>
                <mxCell id="KCpW3uizZsphwxs8JLEF-20" value="" style="rounded=0;whiteSpace=wrap;html=1;" vertex="1" parent="KCpW3uizZsphwxs8JLEF-1">
                    <mxGeometry x="-22" y="721" width="215" height="186" as="geometry"/>
                </mxCell>
                <mxCell id="KCpW3uizZsphwxs8JLEF-21" value="Security" style="text;html=1;strokeColor=none;fillColor=none;align=center;verticalAlign=middle;whiteSpace=wrap;rounded=0;" vertex="1" parent="KCpW3uizZsphwxs8JLEF-1">
                    <mxGeometry x="150" y="695" width="60" height="30" as="geometry"/>
                </mxCell>
                <mxCell id="KCpW3uizZsphwxs8JLEF-22" value="Database" style="shape=cylinder3;whiteSpace=wrap;html=1;boundedLbl=1;backgroundOutline=1;size=15;" vertex="1" parent="KCpW3uizZsphwxs8JLEF-1">
                    <mxGeometry x="-111.5" y="991" width="113" height="123" as="geometry"/>
                </mxCell>
                <mxCell id="KCpW3uizZsphwxs8JLEF-26" style="edgeStyle=none;html=1;exitX=0.5;exitY=1;exitDx=0;exitDy=0;entryX=0.855;entryY=0;entryDx=0;entryDy=4.35;entryPerimeter=0;" edge="1" parent="KCpW3uizZsphwxs8JLEF-1" source="KCpW3uizZsphwxs8JLEF-25" target="KCpW3uizZsphwxs8JLEF-22">
                    <mxGeometry relative="1" as="geometry"/>
                </mxCell>
                <mxCell id="KCpW3uizZsphwxs8JLEF-29" style="edgeStyle=none;html=1;exitX=1;exitY=0.5;exitDx=0;exitDy=0;" edge="1" parent="KCpW3uizZsphwxs8JLEF-1" source="KCpW3uizZsphwxs8JLEF-25">
                    <mxGeometry relative="1" as="geometry">
                        <mxPoint x="239.8228759765625" y="814" as="targetPoint"/>
                    </mxGeometry>
                </mxCell>
                <mxCell id="KCpW3uizZsphwxs8JLEF-25" value="Authentication" style="rounded=1;whiteSpace=wrap;html=1;" vertex="1" parent="KCpW3uizZsphwxs8JLEF-1">
                    <mxGeometry x="30" y="784" width="120" height="60" as="geometry"/>
                </mxCell>
                <mxCell id="KCpW3uizZsphwxs8JLEF-28" style="edgeStyle=none;html=1;exitX=0.5;exitY=1;exitDx=0;exitDy=0;entryX=0.5;entryY=0;entryDx=0;entryDy=0;" edge="1" parent="KCpW3uizZsphwxs8JLEF-1" source="KCpW3uizZsphwxs8JLEF-9" target="KCpW3uizZsphwxs8JLEF-25">
                    <mxGeometry relative="1" as="geometry"/>
                </mxCell>
                <mxCell id="KCpW3uizZsphwxs8JLEF-31" style="edgeStyle=none;html=1;exitX=0.5;exitY=0;exitDx=0;exitDy=0;entryX=0.75;entryY=1;entryDx=0;entryDy=0;" edge="1" parent="KCpW3uizZsphwxs8JLEF-1" source="KCpW3uizZsphwxs8JLEF-30" target="KCpW3uizZsphwxs8JLEF-9">
                    <mxGeometry relative="1" as="geometry"/>
                </mxCell>
                <mxCell id="KCpW3uizZsphwxs8JLEF-30" value="Auithenticated ?" style="text;html=1;strokeColor=none;fillColor=none;align=center;verticalAlign=middle;whiteSpace=wrap;rounded=0;" vertex="1" parent="KCpW3uizZsphwxs8JLEF-1">
                    <mxGeometry x="248" y="799" width="104" height="30" as="geometry"/>
                </mxCell>
                <mxCell id="KCpW3uizZsphwxs8JLEF-32" value="JWT" style="text;html=1;strokeColor=none;fillColor=none;align=center;verticalAlign=middle;whiteSpace=wrap;rounded=0;" vertex="1" parent="KCpW3uizZsphwxs8JLEF-1">
                    <mxGeometry x="210" y="675" width="60" height="30" as="geometry"/>
                </mxCell>
                <mxCell id="KCpW3uizZsphwxs8JLEF-35" value="JWT" style="text;html=1;strokeColor=none;fillColor=none;align=center;verticalAlign=middle;whiteSpace=wrap;rounded=0;" vertex="1" parent="KCpW3uizZsphwxs8JLEF-1">
                    <mxGeometry x="108" y="397" width="60" height="30" as="geometry"/>
                </mxCell>
                <mxCell id="KCpW3uizZsphwxs8JLEF-36" value="JWT" style="text;html=1;strokeColor=none;fillColor=none;align=center;verticalAlign=middle;whiteSpace=wrap;rounded=0;" vertex="1" parent="KCpW3uizZsphwxs8JLEF-1">
                    <mxGeometry x="30" y="179" width="60" height="30" as="geometry"/>
                </mxCell>
            </root>
        </mxGraphModel>
    </diagram>
    <diagram id="0zmAl0iOwu_D0oG6mmKN" name="vehicles-crud">
        <mxGraphModel dx="1728" dy="924" grid="0" gridSize="10" guides="1" tooltips="1" connect="1" arrows="1" fold="1" page="0" pageScale="1" pageWidth="827" pageHeight="1169" math="0" shadow="0">
            <root>
                <mxCell id="1QtlNyER9wXyyfKIoic0-0"/>
                <mxCell id="1QtlNyER9wXyyfKIoic0-1" parent="1QtlNyER9wXyyfKIoic0-0"/>
                <mxCell id="JsHfRkrQphbkOmApPWzF-31" value="" style="rounded=0;whiteSpace=wrap;html=1;" vertex="1" parent="1QtlNyER9wXyyfKIoic0-1">
                    <mxGeometry x="-276" y="96" width="942" height="997" as="geometry"/>
                </mxCell>
                <mxCell id="JsHfRkrQphbkOmApPWzF-0" value="Client" style="rounded=0;whiteSpace=wrap;html=1;" vertex="1" parent="1QtlNyER9wXyyfKIoic0-1">
                    <mxGeometry x="135" y="-26" width="120" height="60" as="geometry"/>
                </mxCell>
                <mxCell id="JsHfRkrQphbkOmApPWzF-1" value="" style="rounded=0;whiteSpace=wrap;html=1;" vertex="1" parent="1QtlNyER9wXyyfKIoic0-1">
                    <mxGeometry x="-149" y="338" width="688" height="188" as="geometry"/>
                </mxCell>
                <mxCell id="JsHfRkrQphbkOmApPWzF-2" value="List" style="rounded=1;whiteSpace=wrap;html=1;" vertex="1" parent="1QtlNyER9wXyyfKIoic0-1">
                    <mxGeometry x="52" y="402" width="120" height="60" as="geometry"/>
                </mxCell>
                <mxCell id="JsHfRkrQphbkOmApPWzF-3" value="Create" style="rounded=1;whiteSpace=wrap;html=1;" vertex="1" parent="1QtlNyER9wXyyfKIoic0-1">
                    <mxGeometry x="-106" y="402" width="120" height="60" as="geometry"/>
                </mxCell>
                <mxCell id="JsHfRkrQphbkOmApPWzF-4" value="Update" style="rounded=1;whiteSpace=wrap;html=1;" vertex="1" parent="1QtlNyER9wXyyfKIoic0-1">
                    <mxGeometry x="210" y="402" width="120" height="60" as="geometry"/>
                </mxCell>
                <mxCell id="JsHfRkrQphbkOmApPWzF-5" value="Delete" style="rounded=1;whiteSpace=wrap;html=1;" vertex="1" parent="1QtlNyER9wXyyfKIoic0-1">
                    <mxGeometry x="368" y="402" width="120" height="60" as="geometry"/>
                </mxCell>
                <mxCell id="JsHfRkrQphbkOmApPWzF-7" style="edgeStyle=none;html=1;exitX=0;exitY=1;exitDx=0;exitDy=0;entryX=0.5;entryY=0;entryDx=0;entryDy=0;" edge="1" parent="1QtlNyER9wXyyfKIoic0-1" source="JsHfRkrQphbkOmApPWzF-0" target="JsHfRkrQphbkOmApPWzF-3">
                    <mxGeometry relative="1" as="geometry"/>
                </mxCell>
                <mxCell id="JsHfRkrQphbkOmApPWzF-8" style="edgeStyle=none;html=1;exitX=0.25;exitY=1;exitDx=0;exitDy=0;entryX=0.5;entryY=0;entryDx=0;entryDy=0;" edge="1" parent="1QtlNyER9wXyyfKIoic0-1" source="JsHfRkrQphbkOmApPWzF-0" target="JsHfRkrQphbkOmApPWzF-2">
                    <mxGeometry relative="1" as="geometry"/>
                </mxCell>
                <mxCell id="JsHfRkrQphbkOmApPWzF-9" style="edgeStyle=none;html=1;exitX=0.75;exitY=1;exitDx=0;exitDy=0;entryX=0.5;entryY=0;entryDx=0;entryDy=0;" edge="1" parent="1QtlNyER9wXyyfKIoic0-1" source="JsHfRkrQphbkOmApPWzF-0" target="JsHfRkrQphbkOmApPWzF-4">
                    <mxGeometry relative="1" as="geometry"/>
                </mxCell>
                <mxCell id="JsHfRkrQphbkOmApPWzF-10" style="edgeStyle=none;html=1;exitX=1;exitY=1;exitDx=0;exitDy=0;entryX=0.5;entryY=0;entryDx=0;entryDy=0;" edge="1" parent="1QtlNyER9wXyyfKIoic0-1" source="JsHfRkrQphbkOmApPWzF-0" target="JsHfRkrQphbkOmApPWzF-5">
                    <mxGeometry relative="1" as="geometry"/>
                </mxCell>
                <mxCell id="JsHfRkrQphbkOmApPWzF-11" value="Only Admin" style="text;html=1;strokeColor=none;fillColor=none;align=center;verticalAlign=middle;whiteSpace=wrap;rounded=0;" vertex="1" parent="1QtlNyER9wXyyfKIoic0-1">
                    <mxGeometry x="-121" y="372" width="82" height="30" as="geometry"/>
                </mxCell>
                <mxCell id="JsHfRkrQphbkOmApPWzF-12" value="Only Admin" style="text;html=1;strokeColor=none;fillColor=none;align=center;verticalAlign=middle;whiteSpace=wrap;rounded=0;" vertex="1" parent="1QtlNyER9wXyyfKIoic0-1">
                    <mxGeometry x="265" y="372" width="82" height="30" as="geometry"/>
                </mxCell>
                <mxCell id="JsHfRkrQphbkOmApPWzF-13" value="Only Admin" style="text;html=1;strokeColor=none;fillColor=none;align=center;verticalAlign=middle;whiteSpace=wrap;rounded=0;" vertex="1" parent="1QtlNyER9wXyyfKIoic0-1">
                    <mxGeometry x="427" y="372" width="82" height="30" as="geometry"/>
                </mxCell>
                <mxCell id="JsHfRkrQphbkOmApPWzF-14" value="Any User" style="text;html=1;strokeColor=none;fillColor=none;align=center;verticalAlign=middle;whiteSpace=wrap;rounded=0;" vertex="1" parent="1QtlNyER9wXyyfKIoic0-1">
                    <mxGeometry x="36" y="372" width="82" height="30" as="geometry"/>
                </mxCell>
                <mxCell id="JsHfRkrQphbkOmApPWzF-15" value="VehicleController" style="text;html=1;strokeColor=none;fillColor=none;align=center;verticalAlign=middle;whiteSpace=wrap;rounded=0;" vertex="1" parent="1QtlNyER9wXyyfKIoic0-1">
                    <mxGeometry x="457" y="313" width="82" height="30" as="geometry"/>
                </mxCell>
                <mxCell id="JsHfRkrQphbkOmApPWzF-16" value="" style="rounded=0;whiteSpace=wrap;html=1;" vertex="1" parent="1QtlNyER9wXyyfKIoic0-1">
                    <mxGeometry x="-149" y="615" width="688" height="188" as="geometry"/>
                </mxCell>
                <mxCell id="JsHfRkrQphbkOmApPWzF-17" value="VehicleService" style="text;html=1;strokeColor=none;fillColor=none;align=center;verticalAlign=middle;whiteSpace=wrap;rounded=0;" vertex="1" parent="1QtlNyER9wXyyfKIoic0-1">
                    <mxGeometry x="457" y="590" width="82" height="30" as="geometry"/>
                </mxCell>
                <mxCell id="JsHfRkrQphbkOmApPWzF-27" style="edgeStyle=none;html=1;exitX=0.5;exitY=1;exitDx=0;exitDy=0;entryX=0;entryY=0;entryDx=0;entryDy=15;entryPerimeter=0;" edge="1" parent="1QtlNyER9wXyyfKIoic0-1" source="JsHfRkrQphbkOmApPWzF-18" target="JsHfRkrQphbkOmApPWzF-26">
                    <mxGeometry relative="1" as="geometry"/>
                </mxCell>
                <mxCell id="JsHfRkrQphbkOmApPWzF-18" value="Create" style="rounded=1;whiteSpace=wrap;html=1;" vertex="1" parent="1QtlNyER9wXyyfKIoic0-1">
                    <mxGeometry x="-106" y="690" width="120" height="60" as="geometry"/>
                </mxCell>
                <mxCell id="JsHfRkrQphbkOmApPWzF-30" style="edgeStyle=none;html=1;exitX=0.5;exitY=1;exitDx=0;exitDy=0;entryX=1;entryY=0;entryDx=0;entryDy=15;entryPerimeter=0;" edge="1" parent="1QtlNyER9wXyyfKIoic0-1" source="JsHfRkrQphbkOmApPWzF-19" target="JsHfRkrQphbkOmApPWzF-26">
                    <mxGeometry relative="1" as="geometry"/>
                </mxCell>
                <mxCell id="JsHfRkrQphbkOmApPWzF-19" value="Delete" style="rounded=1;whiteSpace=wrap;html=1;" vertex="1" parent="1QtlNyER9wXyyfKIoic0-1">
                    <mxGeometry x="368" y="690" width="120" height="60" as="geometry"/>
                </mxCell>
                <mxCell id="JsHfRkrQphbkOmApPWzF-29" style="edgeStyle=none;html=1;exitX=0.5;exitY=1;exitDx=0;exitDy=0;entryX=0.855;entryY=0;entryDx=0;entryDy=4.35;entryPerimeter=0;" edge="1" parent="1QtlNyER9wXyyfKIoic0-1" source="JsHfRkrQphbkOmApPWzF-20" target="JsHfRkrQphbkOmApPWzF-26">
                    <mxGeometry relative="1" as="geometry"/>
                </mxCell>
                <mxCell id="JsHfRkrQphbkOmApPWzF-20" value="Update" style="rounded=1;whiteSpace=wrap;html=1;" vertex="1" parent="1QtlNyER9wXyyfKIoic0-1">
                    <mxGeometry x="210" y="690" width="120" height="60" as="geometry"/>
                </mxCell>
                <mxCell id="JsHfRkrQphbkOmApPWzF-28" style="edgeStyle=none;html=1;exitX=0.5;exitY=1;exitDx=0;exitDy=0;entryX=0.145;entryY=0;entryDx=0;entryDy=4.35;entryPerimeter=0;" edge="1" parent="1QtlNyER9wXyyfKIoic0-1" source="JsHfRkrQphbkOmApPWzF-21" target="JsHfRkrQphbkOmApPWzF-26">
                    <mxGeometry relative="1" as="geometry"/>
                </mxCell>
                <mxCell id="JsHfRkrQphbkOmApPWzF-21" value="List" style="rounded=1;whiteSpace=wrap;html=1;" vertex="1" parent="1QtlNyER9wXyyfKIoic0-1">
                    <mxGeometry x="52" y="690" width="120" height="60" as="geometry"/>
                </mxCell>
                <mxCell id="JsHfRkrQphbkOmApPWzF-22" style="edgeStyle=none;html=1;exitX=0.5;exitY=1;exitDx=0;exitDy=0;entryX=0.5;entryY=0;entryDx=0;entryDy=0;" edge="1" parent="1QtlNyER9wXyyfKIoic0-1" source="JsHfRkrQphbkOmApPWzF-3" target="JsHfRkrQphbkOmApPWzF-18">
                    <mxGeometry relative="1" as="geometry"/>
                </mxCell>
                <mxCell id="JsHfRkrQphbkOmApPWzF-23" style="edgeStyle=none;html=1;exitX=0.5;exitY=1;exitDx=0;exitDy=0;" edge="1" parent="1QtlNyER9wXyyfKIoic0-1" source="JsHfRkrQphbkOmApPWzF-2" target="JsHfRkrQphbkOmApPWzF-21">
                    <mxGeometry relative="1" as="geometry"/>
                </mxCell>
                <mxCell id="JsHfRkrQphbkOmApPWzF-24" style="edgeStyle=none;html=1;exitX=0.5;exitY=1;exitDx=0;exitDy=0;" edge="1" parent="1QtlNyER9wXyyfKIoic0-1" source="JsHfRkrQphbkOmApPWzF-4" target="JsHfRkrQphbkOmApPWzF-20">
                    <mxGeometry relative="1" as="geometry"/>
                </mxCell>
                <mxCell id="JsHfRkrQphbkOmApPWzF-25" style="edgeStyle=none;html=1;exitX=0.5;exitY=1;exitDx=0;exitDy=0;entryX=0.5;entryY=0;entryDx=0;entryDy=0;" edge="1" parent="1QtlNyER9wXyyfKIoic0-1" source="JsHfRkrQphbkOmApPWzF-5" target="JsHfRkrQphbkOmApPWzF-19">
                    <mxGeometry relative="1" as="geometry"/>
                </mxCell>
                <mxCell id="JsHfRkrQphbkOmApPWzF-26" value="Dabase" style="shape=cylinder3;whiteSpace=wrap;html=1;boundedLbl=1;backgroundOutline=1;size=15;" vertex="1" parent="1QtlNyER9wXyyfKIoic0-1">
                    <mxGeometry x="133" y="901" width="108" height="144" as="geometry"/>
                </mxCell>
                <mxCell id="JsHfRkrQphbkOmApPWzF-32" value="Security" style="text;html=1;strokeColor=none;fillColor=none;align=center;verticalAlign=middle;whiteSpace=wrap;rounded=0;" vertex="1" parent="1QtlNyER9wXyyfKIoic0-1">
                    <mxGeometry x="601" y="69" width="82" height="30" as="geometry"/>
                </mxCell>
                <mxCell id="JsHfRkrQphbkOmApPWzF-34" value="Authentication Filter Verifies Header Token" style="rounded=0;whiteSpace=wrap;html=1;" vertex="1" parent="1QtlNyER9wXyyfKIoic0-1">
                    <mxGeometry x="-4" y="213" width="394" height="60" as="geometry"/>
                </mxCell>
                <mxCell id="JsHfRkrQphbkOmApPWzF-35" value="Filter" style="text;html=1;strokeColor=none;fillColor=none;align=center;verticalAlign=middle;whiteSpace=wrap;rounded=0;" vertex="1" parent="1QtlNyER9wXyyfKIoic0-1">
                    <mxGeometry x="330" y="186" width="82" height="30" as="geometry"/>
                </mxCell>
            </root>
        </mxGraphModel>
    </diagram>
</mxfile>